<?xml version="1.0" standalone="no"?>
<!DOCTYPE svg PUBLIC "-//W3C//DTD SVG 20010904//EN"
 "http://www.w3.org/TR/2001/REC-SVG-20010904/DTD/svg10.dtd">
<svg version="1.0" xmlns="http://www.w3.org/2000/svg"
 width="900.000000pt" height="660.000000pt" viewBox="0 0 900.000000 660.000000"
 preserveAspectRatio="xMidYMid meet">

<g transform="translate(0.000000,660.000000) scale(0.100000,-0.100000)"
fill="#000000" stroke="none">
<path d="M5410 4884 c-786 -593 -866 -658 -902 -735 -15 -31 -15 -56 -2 -249
7 -118 16 -233 19 -255 5 -36 2 -44 -25 -70 l-30 -29 -71 69 c-38 39 -334 335
-657 659 -323 323 -607 601 -631 617 -75 48 -129 36 -162 -34 -44 -99 -15
-214 132 -521 120 -252 164 -327 277 -480 93 -125 291 -323 395 -394 126 -87
217 -125 313 -130 73 -4 88 -1 140 22 32 15 61 23 65 19 4 -5 -180 -181 -409
-393 -970 -899 -988 -916 -1013 -967 -62 -128 19 -273 153 -273 65 0 101 29
284 230 87 96 208 229 269 295 149 162 357 391 625 685 122 135 229 252 236
260 12 13 105 -76 693 -664 373 -373 685 -682 692 -687 8 -5 34 -9 58 -9 37 0
49 5 82 39 33 33 39 45 39 81 0 39 -6 48 -87 133 -47 51 -100 106 -117 123
-17 17 -289 290 -605 608 l-574 577 29 30 30 29 194 -15 c107 -8 229 -15 272
-15 73 0 78 1 125 38 48 39 120 117 185 202 261 344 650 863 654 873 6 16 -20
47 -39 47 -14 0 -19 -6 -452 -493 -198 -223 -365 -406 -371 -406 -5 -1 -25 14
-43 33 l-33 34 122 139 c68 76 198 224 290 328 92 105 217 246 278 315 65 73
111 134 112 146 0 31 -34 58 -57 46 -10 -6 -209 -202 -443 -436 -233 -234
-431 -426 -440 -426 -17 0 -66 46 -72 68 -2 7 192 207 430 445 311 311 432
438 432 454 0 27 -43 58 -63 46 -13 -7 -175 -149 -831 -730 -39 -35 -76 -63
-82 -63 -13 0 -64 53 -64 67 0 6 200 190 445 409 388 346 446 402 443 424 -6
51 -37 36 -238 -116z"/>
</g>
</svg>
